<?xml version="1.0" standalone="no"?>
<!DOCTYPE svg PUBLIC "-//W3C//DTD SVG 20010904//EN"
 "http://www.w3.org/TR/2001/REC-SVG-20010904/DTD/svg10.dtd">
<svg version="1.0" xmlns="http://www.w3.org/2000/svg"
 width="182.000000pt" height="182.000000pt" viewBox="0 0 182.000000 182.000000"
 preserveAspectRatio="xMidYMid meet">
<metadata>
Created by potrace 1.11, written by Peter Selinger 2001-2013
</metadata>
<g transform="translate(0.000000,182.000000) scale(0.100000,-0.100000)"
fill="#000000" stroke="none">
<path d="M0 910 l0 -910 910 0 910 0 0 910 0 910 -910 0 -910 0 0 -910z m1130
309 c96 -43 149 -118 159 -221 6 -68 7 -72 36 -81 17 -5 43 -19 59 -30 32 -23
76 -108 76 -150 0 -40 -26 -97 -63 -135 -55 -57 -91 -62 -463 -62 -312 0 -337
1 -388 21 -146 54 -187 227 -79 330 21 20 48 42 61 48 14 8 22 21 22 38 0 48
45 109 102 137 56 28 82 31 121 17 20 -8 29 -5 48 16 83 89 208 118 309 72z"/>
<path d="M961 1178 c-35 -12 -106 -75 -127 -112 -10 -19 -12 -19 -34 -3 -30
21 -92 22 -131 2 -41 -22 -69 -71 -69 -121 0 -37 -3 -43 -27 -49 -64 -16 -113
-79 -113 -145 0 -50 37 -107 86 -130 41 -20 57 -21 406 -18 322 3 366 5 387
20 60 43 79 124 41 185 -24 41 -67 63 -121 63 -35 0 -40 3 -34 18 4 9 9 42 12
72 13 144 -139 264 -276 218z m49 -133 c71 -37 69 -113 -6 -195 -12 -14 -24
-38 -26 -55 -2 -20 -9 -31 -22 -33 -52 -10 -44 66 15 134 46 53 48 81 8 103
-24 13 -29 13 -53 -2 -14 -10 -26 -26 -26 -36 0 -10 -7 -25 -16 -32 -14 -11
-18 -11 -29 4 -7 10 -10 28 -7 40 18 74 94 107 162 72z m-32 -337 c18 -18 14
-46 -7 -58 -38 -20 -71 13 -51 51 12 21 40 25 58 7z"/>
</g>
</svg>
